<?xml version="1.0" encoding="UTF-8" standalone="no"?>
<!-- Created with Inkscape (http://www.inkscape.org/) -->
<svg
   xmlns:svg="http://www.w3.org/2000/svg"
   xmlns="http://www.w3.org/2000/svg"
   version="1.0"
   width="474.23129"
   height="355.5358"
   id="svg2750">
  <defs
     id="defs2752" />
  <g
     transform="translate(-20.320235,-125.63172)"
     id="layer1">
    <g
       transform="translate(20.320127,125.63051)"
       id="Layer_1">
			<path
   d="M 474.178,59.672 C 473.938,65.495 476.469,77.36 454.405,114.186 C 429.761,155.324 391.761,189.504 354.502,217.175 C 332.027,233.869 309.001,247.424 285.093,259.413 C 278.869,257.381 271.213,254.708 262.647,251.365 C 262.59,251.346 262.539,251.318 262.482,251.3 C 268.418,248.348 274.835,245.053 281.864,241.309 C 350.678,204.691 363.427,182.612 362.829,182.013 C 362.231,181.414 344.928,201.57 285.612,236.109 C 276.974,241.135 268.116,245.704 259.101,249.857 C 252.425,247.099 245.872,244.086 240.28,241.249 C 269.087,228.755 299.789,213.211 324.946,196.577 C 363.663,170.986 400.107,141.001 429.012,107.319 C 455.419,76.556 466.273,60.715 467.937,57.593 C 470.552,52.685 474.753,45.924 474.178,59.672 z M 456.625,93.519 C 455.795,93.241 449.968,108.498 429.152,134.02 C 408.384,159.488 389.743,174.799 390.577,175.631 C 391.412,176.463 407.328,165.167 431.651,134.852 C 453.532,107.578 457.46,93.794 456.625,93.519 z M 303.243,113.056 C 300.192,113.888 298.68,110.166 298.448,107.111 C 297.891,99.898 299.118,95.584 298.523,91.735 C 297.849,87.376 300.23,80.32 294.798,82.659 C 291.715,83.986 294.279,87.416 295.393,91.021 C 296.505,94.627 296.222,106.772 296.222,109.333 C 296.222,113.77 298.721,116.372 305.383,118.765 C 313.044,121.516 306.948,139.455 299.556,141.511 C 291.875,143.651 287.566,138.352 282.069,139.293 C 272.357,140.957 274.299,150.389 272.357,153.441 C 270.415,156.491 270.415,156.491 267.086,159.822 C 264.635,162.269 263.036,164.233 261.32,165.779 C 261.589,166.01 261.782,166.411 261.829,167.085 C 262.042,169.999 264.38,172.235 264.38,175.147 C 264.38,178.063 263.451,179.1 259.703,179.93 C 255.96,180.765 254.309,179.308 254.102,178.063 C 253.894,176.814 254.413,172.262 255.016,169.829 C 255.214,169.028 255.488,168.539 255.775,168.214 C 252.735,168.763 248.939,168.976 246.275,168.976 C 246.176,168.976 246.078,168.978 245.978,168.978 C 246.624,169.41 247.322,170.145 247.765,171.475 C 248.821,174.639 248.982,177.022 249.189,178.893 C 249.396,180.765 246.898,181.392 244.399,181.599 C 241.9,181.807 238.987,180.977 238.572,179.93 C 238.157,178.893 238.845,174.558 239.269,172.309 C 239.529,170.939 240.919,169.763 241.995,169.035 C 239.184,169.098 236.186,169.2 233.126,169.247 C 233.942,170.122 234.739,171.199 234.932,172.236 C 235.354,174.485 236.283,177.856 236.075,179.308 C 235.865,180.765 235.241,181.184 231.287,181.392 C 227.331,181.599 225.997,180.977 225.58,180.147 C 225.163,179.313 225.882,174.325 226.381,172.262 C 226.65,171.161 227.472,170.074 228.227,169.263 C 225.759,169.235 223.3,169.14 220.908,168.938 C 221.495,170.569 224.175,173.358 223.466,177.846 C 223.07,180.345 221.896,181.382 216.505,181.392 C 213.384,181.397 211.939,179.308 211.932,177.856 C 211.911,173.867 213.601,171.085 214.487,168.233 C 211.491,167.894 209.674,167.65 208.193,167.033 C 208.398,168.377 209.204,171.927 209.64,175.564 C 209.916,177.846 208.808,179.1 206.104,179.1 C 203.398,179.1 201.731,177.649 201.731,176.396 C 201.731,173.068 206.622,166.877 207.023,166.611 C 207.063,166.585 207.11,166.545 207.16,166.507 C 206.875,166.335 206.594,166.144 206.311,165.923 C 203.812,163.983 200.762,161.217 199.138,154.178 C 197.512,147.139 198.094,142.846 192.674,139.598 C 187.257,136.35 177.495,144.122 172.618,143.613 C 167.187,143.045 160.32,132.182 159.879,127.065 C 159.362,121.082 165.199,123.859 168.521,116.287 C 170.633,111.466 168.533,105.443 168.533,91.908 C 168.533,78.37 173.189,71.477 176.131,64.834 C 178.271,59.999 175.303,56.404 179.077,43.769 C 182.302,32.979 185.208,28.965 185.208,28.965 C 185.208,28.965 180.015,33.238 176.965,43.307 C 174.263,52.218 175.089,56.711 172.92,63.75 C 170.753,70.789 167.477,75.426 165.851,86.255 C 164.226,97.085 166.949,110.29 164.226,114.663 C 162.392,117.607 156.31,114.425 155.518,103.555 C 154.837,94.232 153.627,75.795 155.254,64.966 C 156.878,54.136 157.837,58.163 163.566,38.25 C 170.315,14.781 199.756,0.493 234.908,0.014 C 265.615,-0.405 276.835,9.542 286.868,19.014 C 297.33,28.894 304.628,42.712 306.848,51.59 C 309.068,60.468 311.011,64.152 312.397,71.644 C 313.789,79.133 313.039,90.012 311.685,95.422 C 310.179,101.444 307.223,111.969 303.243,113.056 z M 219.006,89.219 C 215.053,82.977 204.428,81.897 196.321,81.52 C 187.37,81.103 182.471,83.858 181.543,90.676 C 180.793,96.173 181.751,104.407 183.625,110.44 C 185.254,115.688 191.741,122.717 197.361,121.885 C 201.875,121.216 211.509,114.007 217.134,107.529 C 220.496,103.653 220.913,92.225 219.006,89.219 z M 231.496,106.071 C 229.41,106.217 226.293,113.145 224.836,121.884 C 223.877,127.643 220.06,135.684 220.88,140.608 C 221.432,143.918 224.503,144.392 226.293,140.816 C 227.75,137.905 228.582,135.199 230.663,135.199 C 232.744,135.199 237.337,147.391 240.029,147.058 C 243.135,146.676 246.964,141.863 246.483,135.823 C 246.063,130.623 243.984,125.42 240.863,120.01 C 237.742,114.6 233.565,105.928 231.496,106.071 z M 282.069,89.219 C 278.948,85.056 273.536,81.52 262.923,82.145 C 254.145,82.661 245.399,86.207 244.607,92.131 C 243.778,98.373 245.55,101.631 248.983,105.862 C 252.518,110.232 262.509,118.763 268.959,119.178 C 275.413,119.595 281.033,118.138 281.863,111.689 C 282.696,105.239 285.19,93.379 282.069,89.219 z M 267.709,190.546 C 272.706,185.549 271.876,177.02 273.956,166.2 C 276.035,155.382 279.783,152.052 282.277,148.308 C 284.775,144.562 290.739,145.074 291.437,146.644 C 292.272,148.516 289.726,161.151 287.274,169.321 C 283.531,181.806 283.323,186.798 283.111,193.248 C 282.936,198.755 274.163,203.026 269.585,207.396 C 265.003,211.762 260.844,219.88 255.225,221.544 C 249.605,223.208 241.694,220.295 233.16,220.502 C 224.626,220.71 216.093,222.794 211.515,221.125 C 206.937,219.465 201.732,211.762 195.905,206.565 C 190.078,201.36 183.209,198.239 181.13,193.247 C 179.048,188.254 181.13,182.219 180.713,174.52 C 180.296,166.823 178.216,162.038 176.133,157.46 C 174.053,152.882 175.435,149.582 178.839,148.307 C 183.834,146.435 187.373,150.596 189.871,158.5 C 192.478,166.753 194.791,171.597 195.281,178.476 C 195.906,187.212 197.155,188.876 200.069,191.997 C 201.729,193.779 204.788,194.845 208.002,195.731 C 207.41,194.17 206.88,192.138 207.146,188.46 C 207.283,186.584 208.811,185.962 212.141,185.754 C 215.472,185.547 217.676,186.381 217.761,188.046 C 218.041,193.533 216.705,195.881 215.745,197.725 C 217.537,197.998 220.177,198.163 223.218,198.253 C 222.093,195.994 220.891,193.388 220.882,189.083 C 220.877,186.617 222.756,187.004 225.877,186.796 C 229.001,186.589 232.211,186.551 232.329,188.668 C 232.567,192.949 231.108,195.731 229.773,198.343 C 232.015,198.347 234.297,198.328 236.484,198.295 C 235.574,195.476 234.768,191.836 235.242,188.668 C 235.43,187.414 238.158,187.004 240.657,186.796 C 243.151,186.589 246.187,187.824 246.276,189.29 C 246.465,192.534 245.475,195.674 244.353,198.135 C 245.852,198.098 247.153,198.06 248.143,198.031 C 249.086,198.003 250.029,197.936 250.977,197.833 C 249.907,195.806 248.86,193.251 248.983,191.167 C 249.072,189.488 252.726,185.962 255.639,186.169 C 257.959,186.339 260.449,186.829 260.576,188.083 C 260.849,190.714 260.024,193.576 259.007,195.966 C 262.272,194.747 265.285,192.965 267.709,190.546 z M 333.662,277.306 C 333.662,277.306 333.977,281.615 324.256,285.212 C 318.537,287.329 317.448,288.441 286.978,277.513 C 277.798,274.222 227.792,259.918 187.207,236.109 C 128.332,201.57 111.567,181.212 110.568,182.013 C 109.569,182.814 122.628,204.691 190.924,241.309 C 244.975,270.29 263.843,273.562 286.153,281.464 C 313.507,291.157 316.308,291.364 320.033,295.824 C 324.088,300.685 322.508,311.218 322.508,311.218 C 322.508,311.218 272.905,297.126 235.749,281.464 C 194.236,263.968 155.807,244.85 118.83,217.175 C 81.855,189.504 44.136,155.323 19.676,114.186 C -2.22,77.359 0.293,65.495 0.053,59.672 C -0.517,45.924 3.651,52.685 6.251,57.593 C 7.903,60.714 18.671,76.555 44.878,107.319 C 73.571,141.001 109.74,170.986 148.165,196.577 C 183.435,220.07 221.864,237.171 258.922,252.243 C 299.938,268.933 333.662,277.306 333.662,277.306 z M 49.17,288.748 C 57.923,288.748 63.324,295.612 63.324,303.934 C 63.324,317.885 50.896,317.145 50.63,319.539 C 50.363,321.939 54.258,323.627 60.41,322.66 C 64.59,322.005 68.388,315.597 69.986,317.46 C 71.584,319.323 61.264,332.023 51.462,332.023 C 40.847,332.023 30.647,322.872 30.647,309.76 C 30.646,294.778 38.765,288.748 49.17,288.748 z M 71.649,288.54 C 78.891,288.54 79.949,291.067 82.057,297.899 C 84.025,304.292 88.391,305.857 89.341,305.81 C 90.291,305.758 86.684,302.976 84.761,297.691 C 83.096,293.118 80.669,287.706 89.966,287.706 C 98.924,287.706 98.881,291.534 100.164,294.99 C 102.246,300.605 107.849,304.82 108.697,304.768 C 109.545,304.716 104.327,299.36 103.077,294.57 C 102.118,290.897 102.233,287.913 107.448,287.913 C 111.818,287.913 114.525,292.911 118.27,299.568 C 121.54,305.376 124.875,318.535 118.48,319.124 C 109.024,319.992 80.845,320.821 77.062,318.502 C 70.372,314.391 67.904,309.139 66.03,301.439 C 63.752,292.076 64.007,288.54 71.649,288.54 z M 103.91,273.35 C 102.87,274.6 102.663,281.464 94.544,281.464 C 86.428,281.464 80.601,275.642 80.601,265.236 C 80.601,254.835 87.885,249.423 97.665,249.423 C 107.448,249.423 115.357,253.793 123.058,262.737 C 130.691,271.61 133.374,282.364 137.212,285.627 C 142.766,290.346 150.333,289.12 150.865,290.186 C 151.397,291.252 143.871,294.779 143.989,304.854 C 144.091,313.599 144.703,323.076 147.41,327.659 C 150.116,332.232 153.237,335.56 154.279,335.353 C 155.319,335.145 155.524,328.074 162.188,328.074 C 169.472,328.074 173.218,332.854 173.218,342.845 C 173.218,352.83 165.309,355.537 155.112,355.537 C 144.915,355.537 136.171,349.295 132.842,338.059 C 129.511,326.824 126.39,311.633 122.227,300.606 C 118.064,289.583 110.78,277.306 108.698,275.222 C 106.616,273.143 104.952,272.101 103.91,273.35 z M 150.208,285.476 C 139.786,284.84 138.843,277.306 138.843,277.306 C 138.843,277.306 158.965,271.374 186.94,261.729 C 193.809,265.623 197.454,267.565 204.865,270.714 C 194.577,274.18 188.182,276.509 185.082,277.513 C 161.004,285.311 156.542,285.862 150.208,285.476 z M 232.354,282.991 C 194.611,298.427 149.284,311.218 149.284,311.218 C 149.284,311.218 147.695,300.686 151.78,295.824 C 156.151,290.619 163.437,289.375 185.914,281.464 C 194.289,278.522 201.189,276.216 210.612,272.986 C 220.963,278.234 225.913,280.313 232.354,282.991 z M 309.697,328.073 C 316.316,328.073 316.514,335.144 317.551,335.352 C 318.579,335.559 321.681,332.231 324.368,327.658 C 327.051,323.075 328.503,312.656 328.093,303.92 C 327.678,295.184 322.374,292.783 322.775,291.186 C 323.171,289.587 329.456,288.659 334.289,284.627 C 339.437,280.332 340.96,271.61 348.537,262.737 C 356.179,253.793 364.029,249.423 373.736,249.423 C 383.444,249.423 390.676,254.835 390.676,265.236 C 390.676,275.641 384.891,281.464 376.833,281.464 C 368.78,281.464 368.573,274.6 367.536,273.35 C 366.508,272.101 364.853,273.143 362.788,275.222 C 360.723,277.306 353.495,289.582 349.361,300.606 C 345.23,311.633 342.132,326.824 338.823,338.059 C 335.523,349.294 326.844,355.537 316.721,355.537 C 306.603,355.537 298.748,352.83 298.748,342.845 C 298.75,332.854 302.47,328.073 309.697,328.073 z M 364.029,287.913 C 369.206,287.913 369.319,290.897 368.366,294.57 C 367.127,299.36 362.789,304.768 362.789,304.768 C 362.789,304.768 369.191,300.605 371.262,294.99 C 372.53,291.534 372.488,287.706 381.379,287.706 C 390.61,287.706 388.196,293.118 386.546,297.691 C 384.637,302.976 382.001,305.81 382.001,305.81 C 382.001,305.81 387.272,304.291 389.229,297.899 C 391.318,291.067 392.37,288.54 399.559,288.54 C 407.145,288.54 407.395,292.076 405.136,301.439 C 403.274,309.138 400.823,314.39 394.184,318.502 C 390.432,320.821 362.464,319.992 353.082,319.124 C 346.731,318.535 350.046,305.376 353.289,299.568 C 357.004,292.911 359.691,287.913 364.029,287.913 z M 410.714,322.66 C 416.876,323.17 420.624,321.34 420.421,319.539 C 420.223,317.743 407.819,317.885 407.819,303.934 C 407.819,295.613 413.184,288.748 421.868,288.748 C 432.198,288.748 440.251,294.778 440.251,309.761 C 440.251,322.872 430.129,332.292 419.596,332.024 C 403.873,331.628 399.21,319.059 401.209,317.461 C 403.208,315.862 405.169,322.208 410.714,322.66 z "
   id="path2763" />

		</g>
  </g>
</svg>
