<?xml version="1.0" encoding="UTF-8" standalone="no"?>
<!-- Created with Inkscape (http://www.inkscape.org/) -->
<svg xmlns:svg="http://www.w3.org/2000/svg" xmlns="http://www.w3.org/2000/svg" version="1.0" width="30.556702" height="55.101627" id="svg2461">
  <defs id="defs2463"/>
  <g transform="translate(-121.026, -150.899)" id="layer3" style="display: inline;"/>
  <g transform="translate(-121.026, -150.899)" id="layer2" style="display: inline;">
    <g transform="matrix(0.129363, 0.00787155, -0.00787155, 0.129363, 200.965, 149.367)" id="g3692">
      <path d="m -489.70992,458.38168 c 0,0 10.71755,0.82443 10.71755,0.82443 0,0 60.73761,-64.04963 38.7481,-110.47329 -7.6245,-16.09662 -33.36853,-38.4887 -36.27482,-56.06106 -7.24446,-43.80239 28.47462,-60.68483 41.22138,-89.03817 29.17456,-64.89465 -21.39873,-96.17604 7.41985,-145.099239 -15.64929,-16.417985 -147.74809,-7.514439 -164.06107,8.244275 23.8274,79.282074 34.61338,47.840654 55.23665,105.526714 9.97998,38.4369 -20.95232,75.83109 -7.41986,129.43512 3.92152,15.53371 42.85126,47.44296 54.41221,58.53435 20.47795,19.64621 10e-6,98.10687 10e-6,98.10687 z" id="path3680" style="fill: none; stroke: rgb(0, 0, 0); stroke-width: 15.4318; stroke-linecap: round; stroke-linejoin: round; stroke-opacity: 1;"/>
      <path d="m -568.97051,287.69592 c 0,0 -30.88749,6.6249 -15.60944,24.78904 15.31576,18.20896 150.30449,-6.10672 159.07759,-26.37663 8.87867,-20.5138 -27.80318,-17.6367 -27.80318,-17.6367" id="path3682" style="fill: none; stroke: rgb(0, 0, 0); stroke-width: 7.71589px; stroke-linecap: round; stroke-linejoin: round; stroke-opacity: 1;"/>
      <path d="m -570.60783,169.95833 c 0,0 -46.18799,2.74265 -28.03174,22.36414 18.15625,19.6215 201.84585,13.93165 219.75919,-1.47376 17.70837,-15.22914 -23.56675,-27.0341 -23.56675,-27.0341" id="path3684" style="fill: none; stroke: rgb(0, 0, 0); stroke-width: 7.71589px; stroke-linecap: round; stroke-linejoin: round; stroke-opacity: 1;"/>
      <path d="m -505.03069,374.59013 c 0,0 -27.79863,3.40319 -12.79755,23.53304 14.77556,19.82721 107.45809,13.01966 115.01033,-2.83388 7.68897,-16.14055 -14.38201,-23.10143 -14.38201,-23.10143" id="path3688" style="fill: none; stroke: rgb(0, 0, 0); stroke-width: 7.71589px; stroke-linecap: round; stroke-linejoin: round; stroke-opacity: 1;"/>
    </g>
  </g>
</svg>