<?xml version="1.0" encoding="UTF-8" standalone="no"?>
<!DOCTYPE svg PUBLIC "-//W3C//DTD SVG 20010904//EN"
"http://www.w3.org/TR/2001/REC-SVG-20010904/DTD/svg10.dtd">
<!-- Created with Inkscape (http://www.inkscape.org/) -->
<svg
   id="svg1"
   sodipodi:version="0.32"
   inkscape:version="0.38.1"
   width="80.000000pt"
   height="80.000000pt"
   sodipodi:docbase="/home/nicu/Desktop/weather"
   sodipodi:docname="rain.svg"
   xmlns="http://www.w3.org/2000/svg"
   xmlns:inkscape="http://www.inkscape.org/namespaces/inkscape"
   xmlns:sodipodi="http://sodipodi.sourceforge.net/DTD/sodipodi-0.dtd"
   xmlns:xlink="http://www.w3.org/1999/xlink">
  <defs
     id="defs3">
    <linearGradient
       id="linearGradient912">
      <stop
         style="stop-color:#f3f3f3;stop-opacity:1.0000000;"
         offset="0.0000000"
         id="stop913" />
      <stop
         style="stop-color:#ffffff;stop-opacity:1.0000000;"
         offset="0.37650406"
         id="stop855" />
      <stop
         style="stop-color:#e6ffff;stop-opacity:1.0000000;"
         offset="1.0000000"
         id="stop914" />
    </linearGradient>
    <radialGradient
       xlink:href="#linearGradient912"
       id="radialGradient915" />
    <linearGradient
       xlink:href="#linearGradient912"
       id="linearGradient854"
       x1="0.90873015"
       y1="0.63281250"
       x2="-0.47619048"
       y2="-0.14062500" />
  </defs>
  <sodipodi:namedview
     id="base"
     pagecolor="#ffffff"
     bordercolor="#666666"
     borderopacity="1.0"
     inkscape:pageopacity="0.0"
     inkscape:pageshadow="2"
     inkscape:zoom="1.0000000"
     inkscape:cx="34.249847"
     inkscape:cy="31.909424"
     inkscape:window-width="809"
     inkscape:window-height="630"
     inkscape:window-x="39"
     inkscape:window-y="118" />
  <path
     style="fill:url(#linearGradient854);fill-rule:evenodd;stroke:#000000;stroke-width:1.2500000;stroke-dasharray:none;stroke-linejoin:round;"
     d="M 47.746171,18.501271 C 46.708668,13.393973 37.935631,5.9084860 32.680828,7.3078850 C 26.100244,9.1250540 23.069102,15.000906 27.772229,19.430278 C 23.611109,16.614180 13.228948,14.191167 7.6016150,24.002305 C 4.1084330,31.311076 14.000525,35.883620 17.026730,35.343064 C 11.236132,34.646616 -3.0306601,46.556814 3.3217298,52.623662 C 11.148859,58.790434 29.078023,52.121946 29.865271,46.971140 C 28.118597,54.503219 48.039455,55.949245 48.532264,45.480844 C 47.110488,50.388884 61.324082,55.612572 68.081408,53.614112 C 76.550433,51.547826 75.532138,44.572187 74.530037,42.445189 C 81.044178,43.189711 91.243777,45.036015 95.761836,38.341162 C 98.911060,32.014622 97.038765,24.948338 92.984782,22.725620 C 88.567633,20.623843 83.741240,20.733372 78.111925,24.293469 C 82.578729,21.386070 79.823796,12.010619 75.347083,9.9510060 C 70.245048,7.6118150 64.115281,7.1552860 58.609869,8.2926260 C 54.073516,9.0192060 46.894478,12.844752 47.746171,18.501271 z "
     id="path853"
     sodipodi:nodetypes="cccccccccccccccc" />
  <g
     id="g834"
     transform="matrix(0.884604,0.466343,-0.466343,0.884604,3.928770,-41.79426)">
    <path
       style="fill:#ddffff;fill-rule:evenodd;stroke:black;stroke-opacity:1;stroke-width:1pt;stroke-linejoin:miter;stroke-linecap:butt;fill-opacity:1.0000000;"
       d="M 60.403023,79.224438 C 58.864092,86.149625 48.668677,100.19237 59.248825,100.76947 C 72.329734,101.15420 63.096151,86.341991 60.403023,79.224438 z "
       id="path832"
       sodipodi:nodetypes="ccc" />
    <path
       style="fill:#48d3ff;fill-rule:evenodd;stroke:none;stroke-opacity:1;stroke-width:1pt;stroke-linejoin:miter;stroke-linecap:butt;fill-opacity:0.50000000;"
       d="M 60.403023,81.148101 C 60.403023,83.071764 51.169440,99.230534 57.132795,99.422901 C 62.134319,100.19237 55.016766,96.537406 60.403023,81.148101 z "
       id="path833"
       sodipodi:nodetypes="ccc" />
  </g>
  <g
     id="g837"
     transform="matrix(0.884604,0.466343,-0.466343,0.884604,10.75903,-23.83718)">
    <path
       style="fill:#ddffff;fill-rule:evenodd;stroke:black;stroke-opacity:1;stroke-width:1pt;stroke-linejoin:miter;stroke-linecap:butt;fill-opacity:1.0000000;"
       d="M 60.403023,79.224438 C 58.864092,86.149625 48.668677,100.19237 59.248825,100.76947 C 72.329734,101.15420 63.096151,86.341991 60.403023,79.224438 z "
       id="path838"
       sodipodi:nodetypes="ccc" />
    <path
       style="fill:#48d3ff;fill-rule:evenodd;stroke:none;stroke-opacity:1;stroke-width:1pt;stroke-linejoin:miter;stroke-linecap:butt;fill-opacity:0.50000000;"
       d="M 60.403023,81.148101 C 60.403023,83.071764 51.169440,99.230534 57.132795,99.422901 C 62.134319,100.19237 55.016766,96.537406 60.403023,81.148101 z "
       id="path839"
       sodipodi:nodetypes="ccc" />
  </g>
  <g
     id="g840"
     transform="matrix(0.884604,0.466343,-0.466343,0.884604,33.25903,-40.71218)">
    <path
       style="fill:#ddffff;fill-rule:evenodd;stroke:black;stroke-opacity:1;stroke-width:1pt;stroke-linejoin:miter;stroke-linecap:butt;fill-opacity:1.0000000;"
       d="M 60.403023,79.224438 C 58.864092,86.149625 48.668677,100.19237 59.248825,100.76947 C 72.329734,101.15420 63.096151,86.341991 60.403023,79.224438 z "
       id="path841"
       sodipodi:nodetypes="ccc" />
    <path
       style="fill:#48d3ff;fill-rule:evenodd;stroke:none;stroke-opacity:1;stroke-width:1pt;stroke-linejoin:miter;stroke-linecap:butt;fill-opacity:0.50000000;"
       d="M 60.403023,81.148101 C 60.403023,83.071764 51.169440,99.230534 57.132795,99.422901 C 62.134319,100.19237 55.016766,96.537406 60.403023,81.148101 z "
       id="path842"
       sodipodi:nodetypes="ccc" />
  </g>
  <g
     id="g843"
     transform="matrix(0.884604,0.466343,-0.466343,0.884604,41.38400,-20.08718)">
    <path
       style="fill:#ddffff;fill-rule:evenodd;stroke:black;stroke-opacity:1;stroke-width:1pt;stroke-linejoin:miter;stroke-linecap:butt;fill-opacity:1.0000000;"
       d="M 60.403023,79.224438 C 58.864092,86.149625 48.668677,100.19237 59.248825,100.76947 C 72.329734,101.15420 63.096151,86.341991 60.403023,79.224438 z "
       id="path844"
       sodipodi:nodetypes="ccc" />
    <path
       style="fill:#48d3ff;fill-rule:evenodd;stroke:none;stroke-opacity:1;stroke-width:1pt;stroke-linejoin:miter;stroke-linecap:butt;fill-opacity:0.50000000;"
       d="M 60.403023,81.148101 C 60.403023,83.071764 51.169440,99.230534 57.132795,99.422901 C 62.134319,100.19237 55.016766,96.537406 60.403023,81.148101 z "
       id="path845"
       sodipodi:nodetypes="ccc" />
  </g>
  <g
     id="g846"
     transform="matrix(0.884604,0.466343,-0.466343,0.884604,61.69650,-41.96220)">
    <path
       style="fill:#ddffff;fill-rule:evenodd;stroke:black;stroke-opacity:1;stroke-width:1pt;stroke-linejoin:miter;stroke-linecap:butt;fill-opacity:1.0000000;"
       d="M 60.403023,79.224438 C 58.864092,86.149625 48.668677,100.19237 59.248825,100.76947 C 72.329734,101.15420 63.096151,86.341991 60.403023,79.224438 z "
       id="path847"
       sodipodi:nodetypes="ccc" />
    <path
       style="fill:#48d3ff;fill-rule:evenodd;stroke:none;stroke-opacity:1;stroke-width:1pt;stroke-linejoin:miter;stroke-linecap:butt;fill-opacity:0.50000000;"
       d="M 60.403023,81.148101 C 60.403023,83.071764 51.169440,99.230534 57.132795,99.422901 C 62.134319,100.19237 55.016766,96.537406 60.403023,81.148101 z "
       id="path848"
       sodipodi:nodetypes="ccc" />
  </g>

  <rdf:RDF 
   xmlns="http://web.resource.org/cc/"
   xmlns:dc="http://purl.org/dc/elements/1.1/"
   xmlns:rdf="http://www.w3.org/1999/02/22-rdf-syntax-ns#">
  <Work rdf:about="">
    <dc:title>Clipart by Nicu Buculei - w_cloud</dc:title>
    <dc:rights>
       <Agent>
         <dc:title>Nicu Buculei</dc:title>
       </Agent>
    </dc:rights>
    <dc:type rdf:resource="http://purl.org/dc/dcmitype/StillImage" />
    <license rdf:resource="http://web.resource.org/cc/PublicDomain" />
  </Work>
   
  <License rdf:about="http://web.resource.org/cc/PublicDomain">
     <permits rdf:resource="http://web.resource.org/cc/Reproduction" />
     <permits rdf:resource="http://web.resource.org/cc/Distribution" />
     <permits rdf:resource="http://web.resource.org/cc/DerivativeWorks" />
  </License>

</rdf:RDF>
</svg>
